<svg xmlns="http://www.w3.org/2000/svg"  viewBox="0 0 48 48" width="48px" height="48px" baseProfile="basic"><path d="M24,4C12.972,4,4,12.075,4,22c0,0.394,0,1.722,0,2c0,5.4,2.711,10.491,7.317,13.898c-0.777,1.681-1.785,3.156-3.024,4.395	C8.102,42.484,8.01,42.74,8.009,43H8v2h0.009c0,0.129,0.015,0.259,0.067,0.383C8.231,45.756,8.596,46,9,46	c4.016,0,7.666-2.397,10.135-4.553C20.755,41.814,22.389,42,24,42c11.028,0,20-8.075,20-18c0-0.338,0-1.662,0-2	C44,12.075,35.028,4,24,4z"/><path fill="#fff" d="M24,5C13.507,5,5,12.611,5,22c0,5.773,3.224,10.866,8.14,13.938C12.455,38.161,11.223,40.777,9,43 c3.879,0,7.446-2.456,9.861-4.647C20.497,38.764,22.216,39,24,39c10.493,0,19-7.611,19-17S34.493,5,24,5z"/><path d="M9,44c-0.404,0-0.769-0.244-0.924-0.617c-0.155-0.374-0.069-0.804,0.217-1.09c1.605-1.605,2.833-3.6,3.657-5.938 C6.957,32.957,4,27.645,4,22c0-9.925,8.972-18,20-18s20,8.075,20,18s-8.972,18-20,18c-1.611,0-3.245-0.186-4.865-0.553 C16.666,41.603,13.016,44,9,44z M24,6C14.075,6,6,13.178,6,22c0,5.195,2.867,10.089,7.67,13.09c0.385,0.241,0.56,0.709,0.426,1.143 c-0.624,2.021-1.51,3.834-2.646,5.418c2.651-0.734,5.042-2.5,6.738-4.039c0.247-0.225,0.59-0.313,0.916-0.229 C20.733,37.792,22.381,38,24,38c9.925,0,18-7.178,18-16S33.925,6,24,6z"/><circle cx="24" cy="23" r="2"/><circle cx="32" cy="23" r="2"/><circle cx="16" cy="23" r="2"/></svg>